<svg width="104" height="114" viewBox="0 0 104 114" fill="none" xmlns="http://www.w3.org/2000/svg">
<circle cx="38.5" cy="38.5" r="38.5" fill="#D2E6E6"/>
<circle cx="75" cy="85" r="29" fill="#E8F3F3"/>
<mask id="path-3-inside-1_1184_0" fill="white">
<path d="M70.9903 59.905L75.2879 25.5252C75.3978 24.6459 75.3194 23.7532 75.058 22.9064C74.7966 22.0596 74.3581 21.2781 73.7716 20.6138C73.1851 19.9494 72.464 19.4173 71.6562 19.0529C70.8484 18.6885 69.9723 18.5 69.0861 18.5H51.965C50.6936 18.5041 49.4535 18.894 48.4086 19.6181C47.3636 20.3423 46.5631 21.3665 46.1129 22.5555L38.1468 43.7983C37.6249 45.1767 36.6969 46.3642 35.4855 47.2038C34.274 48.0433 32.8363 48.4953 31.3624 48.5H23.5C22.5058 48.5011 21.5526 48.8966 20.8496 49.5996C20.1466 50.3026 19.7511 51.2558 19.75 52.25V59.75C19.75 59.9142 19.7823 60.0767 19.8451 60.2284C19.908 60.38 20 60.5178 20.1161 60.6339C20.2322 60.75 20.37 60.842 20.5216 60.9049C20.6733 60.9677 20.8358 61 21 61H24.543L20.1035 89.857C19.979 90.6658 20.173 91.4914 20.6446 92.1602C21.1162 92.829 21.8288 93.2889 22.6324 93.4432C23.4361 93.5976 24.2683 93.4343 24.9541 92.9878C25.64 92.5413 26.126 91.8463 26.31 91.0489L33.2444 61H37.9768L33.5372 89.857C33.4128 90.6658 33.6067 91.4914 34.0783 92.1602C34.55 92.8291 35.2625 93.289 36.0662 93.4433C36.8699 93.5977 37.7021 93.4344 38.3879 92.9879C39.0738 92.5414 39.5597 91.8463 39.7438 91.0489L46.6781 61H51.5719L58.5063 91.0489C58.6903 91.8463 59.1762 92.5413 59.8621 92.9878C60.5479 93.4344 61.3801 93.5976 62.1837 93.4433C62.9874 93.289 63.7 92.8291 64.1716 92.1603C64.6432 91.4915 64.8372 90.6659 64.7128 89.857L60.2732 61H61.5719L68.5063 91.0489C68.6903 91.8463 69.1762 92.5413 69.8621 92.9878C70.5479 93.4344 71.3801 93.5976 72.1837 93.4433C72.9874 93.289 73.7 92.8291 74.1716 92.1603C74.6432 91.4915 74.8372 90.6659 74.7128 89.857L70.2565 60.8916C70.4536 60.8044 70.6247 60.6678 70.7533 60.4949C70.8818 60.322 70.9635 60.1188 70.9903 59.905ZM28.5 51H31.3624C33.3448 50.9937 35.2786 50.3857 36.908 49.2565C38.5374 48.1273 39.7857 46.5301 40.4877 44.6761L48.4538 23.4333C48.7239 22.7199 49.2042 22.1054 49.8311 21.6709C50.4581 21.2364 51.2022 21.0024 51.965 21H69.0861C69.6178 21 70.1435 21.1131 70.6281 21.3317C71.1128 21.5504 71.5455 21.8696 71.8974 22.2682C72.2493 22.6669 72.5124 23.1357 72.6692 23.6438C72.8261 24.1519 72.8731 24.6875 72.8072 25.2151L70.6899 42.1529C70.5059 43.6057 69.8869 44.969 68.9141 46.0637C67.9414 47.1584 66.6603 47.9333 65.2391 48.2867C66.8577 46.7411 67.8931 44.6842 68.1705 42.4634L69.7403 29.905L67.2597 29.595L65.6899 42.1533C65.4685 43.9047 64.6162 45.5154 63.2927 46.6836C61.9693 47.8519 60.2653 48.4976 58.5 48.5C57.5058 48.5011 56.5526 48.8966 55.8496 49.5996C55.1466 50.3026 54.7511 51.2558 54.75 52.25V53.715C54.3487 53.5726 53.9259 53.4998 53.5 53.5H28.5C28.0741 53.4998 27.6513 53.5726 27.25 53.715V52.25C27.2504 51.9186 27.3822 51.6009 27.6165 51.3665C27.8509 51.1322 28.1686 51.0004 28.5 51ZM62.25 58.5V52.25C62.2504 51.9186 62.3822 51.6009 62.6165 51.3665C62.8509 51.1322 63.1686 51.0004 63.5 51C65.8462 50.9998 68.1132 50.151 69.8827 48.6104L68.6465 58.5H62.25ZM59.9642 51C59.8221 51.4014 59.7496 51.8242 59.75 52.25V58.5H57.25V52.25C57.2504 51.9186 57.3822 51.6009 57.6165 51.3665C57.8509 51.1322 58.1686 51.0004 58.5 51H59.9642ZM54.75 58.5H27.25V57.25C27.2504 56.9186 27.3822 56.6009 27.6165 56.3665C27.8509 56.1322 28.1686 56.0004 28.5 56H53.5C53.8314 56.0004 54.1491 56.1322 54.3835 56.3665C54.6178 56.6009 54.7496 56.9186 54.75 57.25V58.5ZM22.25 52.25C22.2504 51.9186 22.3822 51.6009 22.6165 51.3665C22.8509 51.1322 23.1686 51.0004 23.5 51H24.9642C24.8221 51.4014 24.7496 51.8242 24.75 52.25V58.5H22.25V52.25ZM23.8741 90.4868C23.8355 90.6538 23.7338 90.7993 23.5901 90.8928C23.4465 90.9863 23.2722 91.0205 23.1039 90.9882C22.9357 90.9558 22.7864 90.8595 22.6877 90.7195C22.5889 90.5794 22.5483 90.4065 22.5744 90.2371L27.0723 61H30.6787L23.8741 90.4868ZM37.3078 90.4868C37.2693 90.6538 37.1675 90.7993 37.0239 90.8928C36.8803 90.9863 36.706 91.0205 36.5377 90.9882C36.3694 90.9558 36.2202 90.8595 36.1214 90.7195C36.0227 90.5794 35.9821 90.4065 36.0082 90.2371L40.5061 61H44.1125L37.3078 90.4868ZM62.2419 90.2372C62.2679 90.4066 62.2273 90.5794 62.1285 90.7195C62.0297 90.8595 61.8805 90.9558 61.7122 90.9881C61.544 91.0204 61.3697 90.9862 61.2261 90.8927C61.0825 90.7993 60.9807 90.6537 60.9422 90.4868L54.1375 61H57.7439L62.2419 90.2372ZM72.09 90.769C72.0102 90.8619 71.9063 90.931 71.7896 90.9684C71.673 91.0058 71.5483 91.0101 71.4293 90.9809C71.3104 90.9516 71.2018 90.8899 71.1158 90.8027C71.0298 90.7155 70.9697 90.6061 70.9422 90.4868L64.1375 61H67.7439L72.2419 90.2372C72.2569 90.3316 72.2511 90.4281 72.2249 90.5199C72.1986 90.6118 72.1526 90.6968 72.09 90.769H72.09Z"/>
</mask>
<path d="M70.9903 59.905L75.2879 25.5252C75.3978 24.6459 75.3194 23.7532 75.058 22.9064C74.7966 22.0596 74.3581 21.2781 73.7716 20.6138C73.1851 19.9494 72.464 19.4173 71.6562 19.0529C70.8484 18.6885 69.9723 18.5 69.0861 18.5H51.965C50.6936 18.5041 49.4535 18.894 48.4086 19.6181C47.3636 20.3423 46.5631 21.3665 46.1129 22.5555L38.1468 43.7983C37.6249 45.1767 36.6969 46.3642 35.4855 47.2038C34.274 48.0433 32.8363 48.4953 31.3624 48.5H23.5C22.5058 48.5011 21.5526 48.8966 20.8496 49.5996C20.1466 50.3026 19.7511 51.2558 19.75 52.25V59.75C19.75 59.9142 19.7823 60.0767 19.8451 60.2284C19.908 60.38 20 60.5178 20.1161 60.6339C20.2322 60.75 20.37 60.842 20.5216 60.9049C20.6733 60.9677 20.8358 61 21 61H24.543L20.1035 89.857C19.979 90.6658 20.173 91.4914 20.6446 92.1602C21.1162 92.829 21.8288 93.2889 22.6324 93.4432C23.4361 93.5976 24.2683 93.4343 24.9541 92.9878C25.64 92.5413 26.126 91.8463 26.31 91.0489L33.2444 61H37.9768L33.5372 89.857C33.4128 90.6658 33.6067 91.4914 34.0783 92.1602C34.55 92.8291 35.2625 93.289 36.0662 93.4433C36.8699 93.5977 37.7021 93.4344 38.3879 92.9879C39.0738 92.5414 39.5597 91.8463 39.7438 91.0489L46.6781 61H51.5719L58.5063 91.0489C58.6903 91.8463 59.1762 92.5413 59.8621 92.9878C60.5479 93.4344 61.3801 93.5976 62.1837 93.4433C62.9874 93.289 63.7 92.8291 64.1716 92.1603C64.6432 91.4915 64.8372 90.6659 64.7128 89.857L60.2732 61H61.5719L68.5063 91.0489C68.6903 91.8463 69.1762 92.5413 69.8621 92.9878C70.5479 93.4344 71.3801 93.5976 72.1837 93.4433C72.9874 93.289 73.7 92.8291 74.1716 92.1603C74.6432 91.4915 74.8372 90.6659 74.7128 89.857L70.2565 60.8916C70.4536 60.8044 70.6247 60.6678 70.7533 60.4949C70.8818 60.322 70.9635 60.1188 70.9903 59.905ZM28.5 51H31.3624C33.3448 50.9937 35.2786 50.3857 36.908 49.2565C38.5374 48.1273 39.7857 46.5301 40.4877 44.6761L48.4538 23.4333C48.7239 22.7199 49.2042 22.1054 49.8311 21.6709C50.4581 21.2364 51.2022 21.0024 51.965 21H69.0861C69.6178 21 70.1435 21.1131 70.6281 21.3317C71.1128 21.5504 71.5455 21.8696 71.8974 22.2682C72.2493 22.6669 72.5124 23.1357 72.6692 23.6438C72.8261 24.1519 72.8731 24.6875 72.8072 25.2151L70.6899 42.1529C70.5059 43.6057 69.8869 44.969 68.9141 46.0637C67.9414 47.1584 66.6603 47.9333 65.2391 48.2867C66.8577 46.7411 67.8931 44.6842 68.1705 42.4634L69.7403 29.905L67.2597 29.595L65.6899 42.1533C65.4685 43.9047 64.6162 45.5154 63.2927 46.6836C61.9693 47.8519 60.2653 48.4976 58.5 48.5C57.5058 48.5011 56.5526 48.8966 55.8496 49.5996C55.1466 50.3026 54.7511 51.2558 54.75 52.25V53.715C54.3487 53.5726 53.9259 53.4998 53.5 53.5H28.5C28.0741 53.4998 27.6513 53.5726 27.25 53.715V52.25C27.2504 51.9186 27.3822 51.6009 27.6165 51.3665C27.8509 51.1322 28.1686 51.0004 28.5 51ZM62.25 58.5V52.25C62.2504 51.9186 62.3822 51.6009 62.6165 51.3665C62.8509 51.1322 63.1686 51.0004 63.5 51C65.8462 50.9998 68.1132 50.151 69.8827 48.6104L68.6465 58.5H62.25ZM59.9642 51C59.8221 51.4014 59.7496 51.8242 59.75 52.25V58.5H57.25V52.25C57.2504 51.9186 57.3822 51.6009 57.6165 51.3665C57.8509 51.1322 58.1686 51.0004 58.5 51H59.9642ZM54.75 58.5H27.25V57.25C27.2504 56.9186 27.3822 56.6009 27.6165 56.3665C27.8509 56.1322 28.1686 56.0004 28.5 56H53.5C53.8314 56.0004 54.1491 56.1322 54.3835 56.3665C54.6178 56.6009 54.7496 56.9186 54.75 57.25V58.5ZM22.25 52.25C22.2504 51.9186 22.3822 51.6009 22.6165 51.3665C22.8509 51.1322 23.1686 51.0004 23.5 51H24.9642C24.8221 51.4014 24.7496 51.8242 24.75 52.25V58.5H22.25V52.25ZM23.8741 90.4868C23.8355 90.6538 23.7338 90.7993 23.5901 90.8928C23.4465 90.9863 23.2722 91.0205 23.1039 90.9882C22.9357 90.9558 22.7864 90.8595 22.6877 90.7195C22.5889 90.5794 22.5483 90.4065 22.5744 90.2371L27.0723 61H30.6787L23.8741 90.4868ZM37.3078 90.4868C37.2693 90.6538 37.1675 90.7993 37.0239 90.8928C36.8803 90.9863 36.706 91.0205 36.5377 90.9882C36.3694 90.9558 36.2202 90.8595 36.1214 90.7195C36.0227 90.5794 35.9821 90.4065 36.0082 90.2371L40.5061 61H44.1125L37.3078 90.4868ZM62.2419 90.2372C62.2679 90.4066 62.2273 90.5794 62.1285 90.7195C62.0297 90.8595 61.8805 90.9558 61.7122 90.9881C61.544 91.0204 61.3697 90.9862 61.2261 90.8927C61.0825 90.7993 60.9807 90.6537 60.9422 90.4868L54.1375 61H57.7439L62.2419 90.2372ZM72.09 90.769C72.0102 90.8619 71.9063 90.931 71.7896 90.9684C71.673 91.0058 71.5483 91.0101 71.4293 90.9809C71.3104 90.9516 71.2018 90.8899 71.1158 90.8027C71.0298 90.7155 70.9697 90.6061 70.9422 90.4868L64.1375 61H67.7439L72.2419 90.2372C72.2569 90.3316 72.2511 90.4281 72.2249 90.5199C72.1986 90.6118 72.1526 90.6968 72.09 90.769H72.09Z" fill="#079294" stroke="#F6F6F6" mask="url(#path-3-inside-1_1184_0)"/>
</svg>
