<svg width="20" height="20" viewBox="0 0 20 20" fill="none" xmlns="http://www.w3.org/2000/svg">
<rect x="0.5" y="0.5" width="19" height="19" rx="9.5" fill="#A6331C" stroke="white"/>
<path d="M4.69063 15V14.2793H6.69453V7.31836L4.69063 8.16211V7.44141L6.69453 6.59766H7.45039V14.2793H9.4543V15H4.69063ZM13.1004 7.20117C12.9129 7.20117 12.7371 7.23633 12.573 7.30664C12.4129 7.37695 12.2723 7.47266 12.1512 7.59375C12.0301 7.71484 11.9344 7.85742 11.8641 8.02148C11.7938 8.18164 11.7586 8.35547 11.7586 8.54297V8.88281L11.0027 8.75977V8.54297C11.0027 8.25781 11.0555 7.99023 11.1609 7.74023C11.2703 7.49023 11.4188 7.27148 11.6063 7.08398C11.7938 6.89648 12.0125 6.75 12.2625 6.64453C12.5125 6.53516 12.7801 6.48047 13.0652 6.48047H13.4227C13.7078 6.48047 13.9754 6.53125 14.2254 6.63281C14.4793 6.73438 14.7 6.88086 14.8875 7.07227C15.075 7.26367 15.2215 7.49414 15.327 7.76367C15.4363 8.0293 15.491 8.33008 15.491 8.66602C15.491 8.99805 15.4402 9.33203 15.3387 9.66797C15.241 10.0039 15.1102 10.334 14.9461 10.6582C14.7859 10.9824 14.6004 11.2969 14.3895 11.6016C14.1824 11.9062 13.9695 12.1934 13.7508 12.4629C13.2391 13.0918 12.659 13.6973 12.0105 14.2793H15.5496V15H10.8211V14.4023C11.5516 13.8008 12.2039 13.1777 12.7781 12.5332C13.0242 12.2559 13.2645 11.9609 13.4988 11.6484C13.7332 11.3359 13.9422 11.0156 14.1258 10.6875C14.3094 10.3555 14.4559 10.0195 14.5652 9.67969C14.6785 9.33594 14.7352 8.99805 14.7352 8.66602C14.7352 8.41992 14.698 8.20508 14.6238 8.02148C14.5496 7.83789 14.45 7.68555 14.325 7.56445C14.2 7.44336 14.0555 7.35352 13.8914 7.29492C13.7313 7.23242 13.5633 7.20117 13.3875 7.20117H13.1004Z" fill="white"/>
</svg>
